<?xml version="1.0" encoding="UTF-8" ?>
 <svg viewBox="-0.0000000000000002 -23.7500000404437  48 23.7500000404437" xmlns="http://www.w3.org/2000/svg" version="1.0" overflow="visible">
  <defs>
   <g id="ID__#42_Model_Space"/>
   <g id="A_#36_C4F6038A3">
    <path d="M 0.1250000585318025 7.998246335383052 L 0.1250000585318025 6.998246335383052 L 0.0000000585318026 6.998246335383052 L 0.0000000585318026 5.998246335383052 L 0.1250000585318025 5.998246335383052 L 0.1250000585318025 4.998246335383051 L 0.0000000585318026 4.998246335383051 L 0.0000000585318026 3.998246335383051 L 0.1250000585318025 3.998246335383051 L 0.1250000585318025 2.998246335383051 L 0.0000000585318026 2.998246335383051 L 0.0000000585318026 1.998246335383053 L 0.1250000585318025 1.998246335383053 L 0.1250000585318025 0.9982463353830535 L 0.0000000585318026 0.9982463353830535 L 0.0000000585318026 0.2482463353830537 L 0.1249877568558872 0.2499999794882228 L 0.1249877568558872 -0.0000000205117772 L 4.124987756855886 -0.0000000205117772 L 4.124987756855886 0.2499999794882228 L 8.124987756855887 0.2499999794882228 L 8.124987756855887 -0.0000000205117772 L 12.12498775685588 -0.0000000205117772 L 12.12498775685588 0.2499999794882228 L 16.12498775685589 0.2499999794882228 L 16.12498775685589 -0.0000000205117772 L 20.12498775685589 -0.0000000205117772 L 20.12498775685589 0.2499999794882228 L 24.12498775685589 0.2499999794882228 L 24.12498775685589 -0.0000000205117772 L 28.12498775685589 -0.0000000205117772 L 28.12498775685589 0.2499999794882228 L 32.12498775685589 0.2499999794882228 L 32.12498775685589 7.999999979488222 L 0.1250000585318025 7.999999979488222 " color="rgb(255,0,0)" stroke="currentColor" id="ID_264"/>
   </g>
   <g id="ID__#42_Paper_Space0"/>
   <g id="ID__#42_Paper_Space"/>
  </defs>
  <g id="draft" transform="matrix(1 0 0 -1 0 0)" stroke-width="0.008968750005055462">
   <g id="ID_0" color="rgb(0,0,0)" stroke="currentColor" fill="none" stroke-width="0.008968750005055462">
    <path d="M 0 16.00000004044369 L 0 15.00000004044369 L 0.125 15.00000004044369 L 0.125 14.00000004044369 L 0 14.00000004044369 L 0 13.00000004044369 L 0.125 13.00000004044369 L 0.125 12.00000004044369 L 0 12.00000004044369 L 0 11.00000004044369 L 0.125 11.00000004044369 L 0.125 10.00000004044369 L 0 10.00000004044369 L 0 9.000000040443693 L 0.125 9.000000040443693 L 0.125 8.000000040443693 L 48 8.000000040443693 L 48 15.75000004044369 L 44 15.75000004044369 L 44 16.00000004044369 L 40 16.00000004044369 L 40 15.75000004044369 L 36 15.75000004044369 L 36 16.00000004044369 L 32 16.00000004044369 L 32 15.75000004044369 L 28 15.75000004044369 L 28 16.00000004044369 L 24 16.00000004044369 L 24 15.75000004044369 L 20 15.75000004044369 L 20 16.00000004044369 L 16 16.00000004044369 L 16 15.75000004044369 L 12 15.75000004044369 L 12 16.00000004044369 L 8 16.00000004044369 L 8 15.75000004044369 L 4 15.75000004044369 L 4 16.00000004044369 L 0 16.00000004044369 " color="rgb(255,0,0)" stroke="currentColor" id="ID_203"/>
    <path d="M -0.0000000000000002 23.7500000404437 L -0.0000000000000002 22.7500000404437 L 0.1249999999999998 22.7500000404437 L 0.1249999999999998 21.75000004044369 L -0.0000000000000002 21.75000004044369 L -0.0000000000000002 20.75000004044369 L 0.1249999999999998 20.75000004044369 L 0.1249999999999998 19.75000004044369 L -0.0000000000000002 19.75000004044369 L -0.0000000000000002 18.75000004044369 L 0.1249999999999998 18.75000004044369 L 0.1249999999999998 17.75000004044369 L -0.0000000000000002 17.75000004044369 L -0.0000000000000002 16.75000004044369 L 0.1249999999999998 16.75000004044369 L 0.1249999999999998 16.00000004044369 L 4 16.00000004044369 L 4 15.75000004044369 L 7.999999999999999 15.75000004044369 L 7.999999999999999 16.00000004044369 L 12 16.00000004044369 L 12 15.75000004044369 L 16 15.75000004044369 L 16 16.00000004044369 L 20 16.00000004044369 L 20 15.75000004044369 L 24 15.75000004044369 L 24 16.00000004044369 L 28 16.00000004044369 L 28 15.75000004044369 L 32 15.75000004044369 L 32 16.00000004044369 L 36 16.00000004044369 L 36 15.75000004044369 L 40 15.75000004044369 L 40 16.00000004044369 L 44 16.00000004044369 L 44 15.75000004044369 L 48 15.75000004044369 L 48 16.75000004044369 L 47.875 16.75000004044369 L 47.875 17.75000004044369 L 48 17.75000004044369 L 48 18.75000004044369 L 47.875 18.75000004044369 L 47.875 19.75000004044369 L 48 19.75000004044369 L 48 20.75000004044369 L 47.875 20.75000004044369 L 47.875 21.75000004044369 L 48 21.75000004044369 L 48 22.7500000404437 L 47.875 22.7500000404437 L 47.875 23.7500000404437  z" color="rgb(255,0,0)" stroke="currentColor" id="ID_252"/>
    <path d="M 16.00001230167591 7.998246396338522 L 16.00001230167591 6.998246396338522 L 15.87501230167591 6.998246396338522 L 15.87501230167591 5.998246396338522 L 16.00001230167591 5.998246396338522 L 16.00001230167591 4.998246396338521 L 15.87501230167591 4.998246396338521 L 15.87501230167591 3.998246396338521 L 16.00001230167591 3.998246396338521 L 16.00001230167591 2.998246396338521 L 15.87501230167591 2.998246396338521 L 15.87501230167591 1.998246396338521 L 16.00001230167591 1.998246396338521 L 16.00001230167591 0.9982463963385226 L 15.87501230167591 0.9982463963385226 L 15.87501230167591 0.2482463963385264 L 16 0.2500000404436946 L 16 0.0000000404436946 L 20 0.0000000404436946 L 20 0.2500000404436946 L 24 0.2500000404436946 L 24 0.0000000404436946 L 28 0.0000000404436946 L 28 0.2500000404436946 L 32 0.2500000404436946 L 32 0.0000000404436946 L 36 0.0000000404436946 L 36 0.2500000404436946 L 40 0.2500000404436946 L 40 0.0000000404436946 L 44 0.0000000404436946 L 44 0.2500000404436946 L 48 0.2500000404436946 L 48 8.000000040443693 L 16.00001230167591 8.000000040443693 " color="rgb(255,0,0)" stroke="currentColor" id="ID_262"/>
    <path d="M 15.87500000675459 0.25 L 15.87500000675459 1 L 16.00000000675459 1 L 16.00000000675459 2 L 15.87500000675459 2 L 15.87500000675459 3 L 16.00000000675459 3 L 16.00000000675459 4 L 15.87500000675459 4 L 15.87500000675459 5 L 16.00000000675459 5 L 16.00000000675459 6 L 15.87500000675459 6 L 15.87500000675459 7 L 16.00000000675459 7 L 16.00000000675459 8 L 0.0000000067545898 8 L 0.0000000067545898 0 L 4.000000006754588 0 L 4.000000006754588 0.25 L 8.00000000675459 0.25 L 8.00000000675459 0 L 12.00000000675459 0 L 12.00000000675459 0.25  z" color="rgb(255,0,0)" stroke="currentColor" id="ID_270"/>
   </g>
  </g>
 </svg>