<?xml version="1.0" encoding="UTF-8" ?>
 <svg viewBox="-0.0000000363202162 -23.75000003945886  32.25000000000001 23.750000000000014" xmlns="http://www.w3.org/2000/svg" version="1.0" overflow="visible">
  <defs>
   <g id="ID__#42_Model_Space"/>
   <g id="A_#36_C41818D72">
    <path d="M 0.1250122653556973 7.999999992668875 L 32.12499996367979 7.999999992668875 L 32.12499996367979 6.999999992668875 L 31.99999996367978 6.999999992668875 L 31.99999996367978 5.999999992668875 L 32.12499996367979 5.999999992668875 L 32.12499996367979 4.999999992668875 L 31.99999996367978 4.999999992668875 L 31.99999996367978 3.999999992668875 L 32.12499996367979 3.999999992668875 L 32.12499996367979 2.999999992668875 L 31.99999996367978 2.999999992668875 L 31.99999996367978 1.999999992668875 L 32.12499996367979 1.999999992668875 L 32.12499996367979 0.9999999926688758 L 31.99999996367978 0.9999999926688758 L 31.99999996367978 0.2499999926688758 L 28.12499996367979 0.2499999926688758 L 28.12499996367979 -0.0000000073311242 L 24.12499996367979 -0.0000000073311242 L 24.12499996367979 0.2499999926688758 L 20.12499996367978 0.2499999926688758 L 20.12499996367978 -0.0000000073311242 L 16.12499996367978 -0.0000000073311242 L 16.12499996367978 0.2499999926688758 L 12.12499996367978 0.2499999926688758 L 12.12499996367978 -0.0000000073311242 L 8.124999963679782 -0.0000000073311242 L 8.124999963679782 0.2499999926688758 L 4.124999963679782 0.2499999926688758 L 4.124999963679782 -0.0000000073311242 L 0.1249999636797821 -0.0000000073311242 L 0.1249999636797821 0.2499999926688758 L -0.0000000363202162 0.2499999926688758 L -0.0000000363202162 0.9999999926688758 L 0.1249999636797838 0.9999999926688758 L 0.1249999636797838 1.999999992668875 L -0.0000000363202162 1.999999992668875 L -0.0000000363202162 2.999999992668875 L 0.1249999636797838 2.999999992668875 L 0.1249999636797838 3.999999992668875 L -0.0000000363202162 3.999999992668875 L -0.0000000363202162 4.999999992668875 L 0.1249999636797838 4.999999992668875 L 0.1249999636797838 5.999999992668875 L -0.0000000363202162 5.999999992668875 L -0.0000000363202162 6.999999992668875 L 0.1249999636797838 6.999999992668875 L 0.1250122653556973 7.999999992668875 " color="rgb(255,0,0)" stroke="currentColor" id="ID_33E"/>
   </g>
   <g id="ID__#42_Paper_Space0"/>
   <g id="ID__#42_Paper_Space"/>
  </defs>
  <g id="draft" transform="matrix(1 0 0 -1 0 0)" stroke-width="0.007000000000000003">
   <g id="ID_0" color="rgb(0,0,0)" stroke="currentColor" fill="none" stroke-width="0.007000000000000003">
    <path d="M 12.1250122653557 23.75000003945885 L 12.1250122653557 23.50000003945885 L 8.125012265355698 23.50000003945885 L 8.125012265355698 23.75000003945885 L 4.1250122653557 23.75000003945886 L 4.1250122653557 23.50000003945886 L 0.1250122653557 23.50000003945886 L 0.1250122653557 22.75000003945886 L 0.0000122653557 22.75000003945886 L 0.0000122653557 21.75000003945886 L 0.1250122653557 21.75000003945886 L 0.1250122653556991 20.75000003945886 L 0.0000122653556991 20.75000003945886 L 0.0000122653556991 19.75000003945886 L 0.1250122653556991 19.75000003945886 L 0.1250122653556982 18.75000003945886 L 0.0000122653556982 18.75000003945886 L 0.0000122653556982 17.75000003945885 L 0.1250122653556982 17.75000003945885 L 0.1250122653556973 16.75000003945885 L 0.0000122653556973 16.75000003945885 L 0.0000122653556973 15.75000003945885 L 16.12501226535569 15.75000003945884 L 16.1250122653557 23.75000003945884  z" color="rgb(255,0,0)" stroke="currentColor" id="ID_33C"/>
    <path d="M 32.12499996367979 0.0000000394588468 L 32.12499996367979 1.000000039458846 L 32.24999996367979 1.000000039458846 L 32.24999996367979 2.000000039458846 L 32.12499996367979 2.000000039458846 L 32.12499996367979 3.000000039458846 L 32.24999996367979 3.000000039458846 L 32.24999996367979 4.000000039458846 L 32.12499996367979 4.000000039458846 L 32.12499996367979 5.000000039458846 L 32.24999996367979 5.000000039458846 L 32.24999996367979 6.000000039458846 L 32.12499996367979 6.000000039458846 L 32.12499996367979 7.000000039458846 L 32.24999996367979 7.000000039458846 L 32.24999996367979 7.750000039458846 L 32.12499996367979 7.750000039458846 L 32.12499996367979 8.000000039458847 L 28.12499996367979 8.000000039458849 L 28.12499996367979 7.750000039458848 L 24.12499996367979 7.750000039458848 L 24.12499996367979 8.000000039458849 L 20.12499996367978 8.00000003945885 L 20.12499996367978 7.75000003945885 L 16.12499996367978 7.75000003945885 L 16.12499996367978 8.00000003945885 L 12.12499996367978 8.000000039458852 L 12.12499996367978 7.750000039458852 L 8.124999963679782 7.750000039458852 L 8.124999963679782 8.000000039458852 L 4.124999963679782 8.000000039458852 L 4.124999963679782 7.750000039458853 L 0.249999963679782 7.750000039458853 L 0.2499999636797819 7.000000039458853 L 0.1249999636797819 7.000000039458853 L 0.1249999636797816 6.000000039458853 L 0.2499999636797817 6.000000039458853 L 0.2499999636797814 5.000000039458853 L 0.1249999636797814 5.000000039458853 L 0.1249999636797812 4.000000039458853 L 0.2499999636797812 4.000000039458853 L 0.249999963679781 3.000000039458853 L 0.124999963679781 3.000000039458853 L 0.1249999636797808 2.000000039458853 L 0.2499999636797808 2.000000039458853 L 0.2499999636797805 1.000000039458853 L 0.1249999636797805 1.000000039458853 L 0.1249999636797803 0.0000000394588539  z" color="rgb(255,0,0)" stroke="currentColor" id="ID_34B"/>
    <path d="M 0.1250122653556973 15.75000003945885 L 32.12499996367979 15.75000003945885 L 32.12499996367979 14.75000003945885 L 31.99999996367978 14.75000003945885 L 31.99999996367978 13.75000003945885 L 32.12499996367979 13.75000003945885 L 32.12499996367979 12.75000003945885 L 31.99999996367978 12.75000003945885 L 31.99999996367978 11.75000003945885 L 32.12499996367979 11.75000003945885 L 32.12499996367979 10.75000003945885 L 31.99999996367978 10.75000003945885 L 31.99999996367978 9.750000039458852 L 32.12499996367979 9.750000039458852 L 32.12499996367979 8.750000039458852 L 31.99999996367978 8.750000039458852 L 31.99999996367978 8.000000039458852 L 28.12499996367979 8.000000039458852 L 28.12499996367979 7.750000039458853 L 24.12499996367979 7.750000039458853 L 24.12499996367979 8.000000039458852 L 20.12499996367978 8.000000039458852 L 20.12499996367978 7.750000039458853 L 16.12499996367978 7.750000039458853 L 16.12499996367978 8.000000039458852 L 12.12499996367978 8.000000039458852 L 12.12499996367978 7.750000039458853 L 8.124999963679782 7.750000039458853 L 8.124999963679782 8.000000039458852 L 4.124999963679782 8.000000039458852 L 4.124999963679782 7.750000039458853 L 0.1249999636797821 7.750000039458853 L 0.1249999636797821 8.000000039458852 L -0.0000000363202162 8.000000039458852 L -0.0000000363202162 8.750000039458852 L 0.1249999636797838 8.750000039458852 L 0.1249999636797838 9.750000039458852 L -0.0000000363202162 9.750000039458852 L -0.0000000363202162 10.75000003945885 L 0.1249999636797838 10.75000003945885 L 0.1249999636797838 11.75000003945885 L -0.0000000363202162 11.75000003945885 L -0.0000000363202162 12.75000003945885 L 0.1249999636797838 12.75000003945885 L 0.1249999636797838 13.75000003945885 L -0.0000000363202162 13.75000003945885 L -0.0000000363202162 14.75000003945885 L 0.1249999636797838 14.75000003945885 L 0.1250122653556973 15.75000003945885 " color="rgb(255,0,0)" stroke="currentColor" id="ID_34C"/>
   </g>
  </g>
 </svg>